{
  "accessors": [
    {
      "bufferView": 2,
      "componentType": 5126,
      "count": 1259,
      "max": [
        2.9909000396728516,
        3.0073800086975098,
        7.9528398513793945
      ],
      "min": [
        -2.990910053253174,
        -2.9645400047302246,
        2.9306299686431885
      ],
      "type": "VEC3"
    },
    {
      "bufferView": 2,
      "byteOffset": 15108,
      "componentType": 5126,
      "count": 1259,
      "max": [
        0.8268430233001709,
        0.8223970532417297,
        1.0
      ],
      "min": [
        -0.8268430233001709,
        -0.8222194314002991,
        -1.0
      ],
      "type": "VEC3"
    },
    {
      "bufferView": 3,
      "componentType": 5126,
      "count": 1259,
      "max": [
        0.9999881982803345,
        0.9999345541000366,
        0.2887517809867859,
        1.0
      ],
      "min": [
        -0.9999855160713196,
        -0.9985345602035522,
        -0.29742324352264404,
        -1.0
      ],
      "type": "VEC4"
    },
    {
      "bufferView": 1,
      "componentType": 5126,
      "count": 1259,
      "max": [
        0.9092199802398682,
        0.9429100155830383
      ],
      "min": [
        4.999999873689376e-05,
        4.999999873689376e-05
      ],
      "type": "VEC2"
    },
    {
      "bufferView": 1,
      "byteOffset": 10072,
      "componentType": 5126,
      "count": 1259,
      "max": [
        0.9092199802398682,
        0.9429100155830383
      ],
      "min": [
        4.999999873689376e-05,
        4.999999873689376e-05
      ],
      "type": "VEC2"
    },
    {
      "bufferView": 1,
      "byteOffset": 20144,
      "componentType": 5126,
      "count": 1259,
      "max": [
        0.9092199802398682,
        0.9429100155830383
      ],
      "min": [
        4.999999873689376e-05,
        4.999999873689376e-05
      ],
      "type": "VEC2"
    },
    {
      "bufferView": 0,
      "componentType": 5125,
      "count": 3288,
      "type": "SCALAR"
    },
    {
      "bufferView": 2,
      "byteOffset": 30216,
      "componentType": 5126,
      "count": 21779,
      "max": [
        3.023710012435913,
        5.93651008605957,
        8.074780464172363
      ],
      "min": [
        -14.243029594421387,
        -5.936520099639893,
        -6.030449867248535
      ],
      "type": "VEC3"
    },
    {
      "bufferView": 2,
      "byteOffset": 291564,
      "componentType": 5126,
      "count": 21779,
      "max": [
        1.0,
        1.0,
        1.0
      ],
      "min": [
        -1.0,
        -1.0,
        -1.0
      ],
      "type": "VEC3"
    },
    {
      "bufferView": 3,
      "byteOffset": 20144,
      "componentType": 5126,
      "count": 21779,
      "max": [
        1.0,
        1.0,
        1.0,
        1.0
      ],
      "min": [
        -1.0,
        -1.0,
        -1.0,
        1.0
      ],
      "type": "VEC4"
    },
    {
      "bufferView": 1,
      "byteOffset": 30216,
      "componentType": 5126,
      "count": 21779,
      "max": [
        0.9999499917030334,
        0.9999499917030334
      ],
      "min": [
        4.999999873689376e-05,
        4.999999873689376e-05
      ],
      "type": "VEC2"
    },
    {
      "bufferView": 1,
      "byteOffset": 204448,
      "componentType": 5126,
      "count": 21779,
      "max": [
        0.9999499917030334,
        0.9999499917030334
      ],
      "min": [
        4.999999873689376e-05,
        4.999999873689376e-05
      ],
      "type": "VEC2"
    },
    {
      "bufferView": 1,
      "byteOffset": 378680,
      "componentType": 5126,
      "count": 21779,
      "max": [
        0.9999499917030334,
        0.9999499917030334
      ],
      "min": [
        4.999999873689376e-05,
        4.999999873689376e-05
      ],
      "type": "VEC2"
    },
    {
      "bufferView": 0,
      "byteOffset": 13152,
      "componentType": 5125,
      "count": 44265,
      "type": "SCALAR"
    }
  ],
  "asset": {
    "extras": {
      "author": "Snowfall (https://sketchfab.com/snowfall)",
      "license": "CC-BY-4.0 (http://creativecommons.org/licenses/by/4.0/)",
      "source": "https://sketchfab.com/3d-models/galileo-orbiter-19c3c6e0c1b548919d11681065fcf65a",
      "title": "Galileo Orbiter"
    },
    "generator": "Sketchfab-12.68.0",
    "version": "2.0"
  },
  "bufferViews": [
    {
      "buffer": 0,
      "byteLength": 190212,
      "name": "floatBufferViews",
      "target": 34963
    },
    {
      "buffer": 0,
      "byteLength": 552912,
      "byteOffset": 190212,
      "byteStride": 8,
      "name": "floatBufferViews",
      "target": 34962
    },
    {
      "buffer": 0,
      "byteLength": 552912,
      "byteOffset": 743124,
      "byteStride": 12,
      "name": "floatBufferViews",
      "target": 34962
    },
    {
      "buffer": 0,
      "byteLength": 368608,
      "byteOffset": 1296036,
      "byteStride": 16,
      "name": "floatBufferViews",
      "target": 34962
    }
  ],
  "buffers": [
    {
      "byteLength": 1664644,
      "uri": "scene.bin"
    }
  ],
  "images": [
    {
      "uri": "textures/Galileo_baseColor.png"
    },
    {
      "uri": "textures/Galileo_normal.png"
    }
  ],
  "materials": [
    {
      "doubleSided": true,
      "name": "Galileo",
      "normalTexture": {
        "index": 1,
        "scale": 0.6999999881
      },
      "pbrMetallicRoughness": {
        "baseColorTexture": {
          "index": 0
        },
        "metallicFactor": 0.0,
        "roughnessFactor": 0.6
      }
    },
    {
      "alphaMode": "BLEND",
      "doubleSided": true,
      "name": "Galileo.001",
      "normalTexture": {
        "index": 1
      },
      "pbrMetallicRoughness": {
        "baseColorFactor": [
          1.0,
          1.0,
          1.0,
          0.12
        ],
        "baseColorTexture": {
          "index": 0
        },
        "metallicFactor": 0.0,
        "roughnessFactor": 0.6
      }
    }
  ],
  "meshes": [
    {
      "name": "Circle.009_0",
      "primitives": [
        {
          "attributes": {
            "NORMAL": 1,
            "POSITION": 0,
            "TANGENT": 2,
            "TEXCOORD_0": 3,
            "TEXCOORD_1": 4,
            "TEXCOORD_2": 5
          },
          "indices": 6,
          "material": 1,
          "mode": 4
        }
      ]
    },
    {
      "name": "Circle.000_0",
      "primitives": [
        {
          "attributes": {
            "NORMAL": 8,
            "POSITION": 7,
            "TANGENT": 9,
            "TEXCOORD_0": 10,
            "TEXCOORD_1": 11,
            "TEXCOORD_2": 12
          },
          "indices": 13,
          "material": 0,
          "mode": 4
        }
      ]
    }
  ],
  "nodes": [
    {
      "children": [
        1
      ],
      "matrix": [
        1.0,
        0.0,
        0.0,
        0.0,
        0.0,
        2.220446049250313e-16,
        -1.0,
        0.0,
        0.0,
        1.0,
        2.220446049250313e-16,
        0.0,
        0.0,
        0.0,
        0.0,
        1.0
      ],
      "name": "Sketchfab_model"
    },
    {
      "children": [
        2,
        4,
        6,
        8,
        10,
        12,
        14
      ],
      "name": "Root"
    },
    {
      "children": [
        3
      ],
      "matrix": [
        0.0,
        -0.59848,
        0.0,
        0.0,
        0.59848,
        0.0,
        0.0,
        0.0,
        0.0,
        0.0,
        0.3431200000000001,
        0.0,
        -0.0,
        0.0,
        -0.022440000000000005,
        1.0
      ],
      "name": "Circle.009"
    },
    {
      "mesh": 0,
      "name": "Circle.009_0"
    },
    {
      "children": [
        5
      ],
      "matrix": [
        1.0,
        0.0,
        0.0,
        0.0,
        0.0,
        1.0,
        0.0,
        0.0,
        0.0,
        0.0,
        1.0,
        0.0,
        11.78256,
        26.37151,
        27.072519999999997,
        1.0
      ],
      "name": "Point.002"
    },
    {
      "name": "Point.002"
    },
    {
      "children": [
        7
      ],
      "matrix": [
        1.0,
        0.0,
        0.0,
        0.0,
        0.0,
        1.0,
        0.0,
        0.0,
        0.0,
        0.0,
        1.0,
        0.0,
        4.33839,
        -13.51175,
        11.28873,
        1.0
      ],
      "name": "Point.000"
    },
    {
      "name": "Point.000"
    },
    {
      "children": [
        9
      ],
      "matrix": [
        1.0,
        0.0,
        0.0,
        0.0,
        0.0,
        1.0,
        0.0,
        0.0,
        0.0,
        0.0,
        1.0,
        0.0,
        -75.74289,
        -43.61381,
        -49.77917000000001,
        1.0
      ],
      "name": "Point.001"
    },
    {
      "name": "Point.001"
    },
    {
      "children": [
        11
      ],
      "matrix": [
        1.0,
        0.0,
        0.0,
        0.0,
        0.0,
        1.0,
        0.0,
        0.0,
        0.0,
        0.0,
        1.0,
        0.0,
        85.57839999999999,
        35.59126,
        -99.65941,
        1.0
      ],
      "name": "Point.003"
    },
    {
      "name": "Point.003"
    },
    {
      "children": [
        13
      ],
      "matrix": [
        1.0,
        0.0,
        0.0,
        0.0,
        0.0,
        1.0,
        0.0,
        0.0,
        0.0,
        0.0,
        1.0,
        0.0,
        -66.85016999999999,
        -25.0688,
        120.15534999999998,
        1.0
      ],
      "name": "Point.004"
    },
    {
      "name": "Point.004"
    },
    {
      "children": [
        15
      ],
      "matrix": [
        0.0,
        -0.59848,
        0.0,
        0.0,
        0.59848,
        0.0,
        0.0,
        0.0,
        0.0,
        0.0,
        0.3431200000000001,
        0.0,
        -0.0,
        0.0,
        -0.022440000000000005,
        1.0
      ],
      "name": "Circle.000"
    },
    {
      "mesh": 1,
      "name": "Circle.000_0"
    }
  ],
  "samplers": [
    {
      "magFilter": 9729,
      "minFilter": 9987,
      "wrapS": 10497,
      "wrapT": 10497
    }
  ],
  "scene": 0,
  "scenes": [
    {
      "name": "Sketchfab_Scene",
      "nodes": [
        0
      ]
    }
  ],
  "textures": [
    {
      "sampler": 0,
      "source": 0
    },
    {
      "sampler": 0,
      "source": 1
    }
  ]
}
